<svg width="198" height="35" viewBox="0 0 198 35" fill="none" xmlns="http://www.w3.org/2000/svg">
<path d="M25.0829 3.96548L25.1405 7.33999L14.792 7.51674L15.2416 33.8379L11.6421 33.8994L11.1926 7.57822L0.84407 7.75496L0.786435 4.38046L25.0829 3.96548ZM31.9113 33.5532L31.4041 3.85752L52.2361 3.50172L52.2937 6.87622L35.0612 7.17055L35.2249 16.7542L48.633 16.5251L48.6906 19.8997L35.2825 20.1287L35.4531 30.1172L53.3605 29.8114L53.4182 33.1859L31.9113 33.5532ZM84.27 32.6589L80.4455 32.7242L77.1553 24.5442L63.7023 24.774L60.6934 33.0616L56.9139 33.1262L67.9701 3.23299L72.2444 3.15998L84.27 32.6589ZM64.9495 21.3772L75.7929 21.192L70.0989 6.66213L64.9495 21.3772ZM100.282 2.68111C102.292 2.64678 104.038 2.99201 105.521 3.7168C107.033 4.41108 108.22 5.42595 109.083 6.7614C109.946 8.09686 110.394 9.69446 110.425 11.5542C110.457 13.4139 110.065 15.0259 109.248 16.39C108.431 17.7541 107.279 18.824 105.792 19.5995C104.335 20.3445 102.601 20.7341 100.591 20.7685L93.7073 20.886L93.9056 32.4944L90.3061 32.5558L89.7989 2.86016L100.282 2.68111ZM99.9938 17.4032C102.333 17.3632 104.035 16.8541 105.098 15.8758C106.161 14.8675 106.677 13.4485 106.646 11.6187C106.614 9.75901 106.05 8.35844 104.954 7.41702C103.858 6.4756 102.14 6.02487 99.8001 6.06483L93.456 6.17319L93.6497 17.5115L99.9938 17.4032ZM121.31 28.6508L138.317 28.3603L138.375 31.7348L117.768 32.0868L117.261 2.39112L120.86 2.32964L121.31 28.6508ZM166.17 1.55577L166.488 20.1831C166.553 23.9925 165.598 26.8892 163.621 28.8733C161.644 30.8273 158.781 31.8364 155.032 31.9004C151.312 31.9639 148.416 31.0533 146.344 29.1684C144.301 27.253 143.247 24.3906 143.182 20.5811L142.863 1.95384L146.463 1.89236L146.766 19.6198C146.818 22.7093 147.502 24.978 148.817 26.4257C150.162 27.873 152.214 28.573 154.974 28.5259C157.734 28.4788 159.746 27.7093 161.01 26.2175C162.305 24.7252 162.926 22.4342 162.873 19.3447L162.571 1.61725L166.17 1.55577ZM184.835 0.786917C187.445 0.742346 189.703 1.24384 191.612 2.29141C193.519 3.30898 195.121 4.84186 196.416 6.89004L193.441 9.28119C192.299 7.38042 191.016 6.05213 189.593 5.29633C188.199 4.51001 186.512 4.13376 184.533 4.16757C182.943 4.19472 181.627 4.44223 180.585 4.9101C179.573 5.37745 178.833 5.99017 178.366 6.74826C177.898 7.47635 177.672 8.30533 177.688 9.2352C177.706 10.285 178.052 11.2093 178.726 12.0079C179.399 12.7765 180.729 13.3689 182.717 13.785L189.175 15.1149C192.036 15.6961 194.032 16.6222 195.164 17.893C196.325 19.1334 196.922 20.6984 196.954 22.5881C196.983 24.2679 196.528 25.7759 195.591 27.1121C194.683 28.4178 193.381 29.4452 191.683 30.1943C189.986 30.9434 187.982 31.3376 185.672 31.3771C183.513 31.414 181.603 31.1615 179.944 30.6198C178.314 30.0475 176.905 29.2765 175.719 28.3066C174.532 27.3367 173.553 26.2433 172.782 25.0263L175.888 22.4079C176.477 23.538 177.229 24.5303 178.144 25.3848C179.059 26.2393 180.15 26.8957 181.418 27.3541C182.716 27.812 184.19 28.0269 185.84 27.9987C187.37 27.9726 188.686 27.7701 189.79 27.3912C190.923 26.9818 191.784 26.412 192.371 25.6819C192.958 24.9217 193.243 24.0167 193.225 22.9669C193.209 22.007 192.879 21.1575 192.236 20.4184C191.593 19.6493 190.398 19.0846 188.652 18.7244L181.651 17.2687C179.814 16.88 178.32 16.3354 177.167 15.635C176.045 14.9041 175.22 14.048 174.693 13.0669C174.196 12.0552 173.937 10.9645 173.917 9.79467C173.89 8.20491 174.3 6.74269 175.147 5.40802C176.024 4.04285 177.281 2.94124 178.917 2.10318C180.582 1.26461 182.555 0.825853 184.835 0.786917Z" fill="#FF768F"/>
</svg>
